<mxfile host="app.diagrams.net" modified="2022-09-15T13:04:26.919Z" agent="5.0 (Windows)" etag="gp9OsmeArhTiRutGAymx" version="20.3.1" type="github">
  <diagram id="a5YK8WT2JMSEleIn5fNO" name="Страница 1">
    <mxGraphModel dx="1422" dy="752" grid="1" gridSize="10" guides="1" tooltips="1" connect="1" arrows="1" fold="1" page="1" pageScale="1" pageWidth="827" pageHeight="1169" math="0" shadow="0">
      <root>
        <mxCell id="0" />
        <mxCell id="1" parent="0" />
        <mxCell id="haO7yndfSyBWcvpZkn_b-1" value="University" style="swimlane;fontStyle=1;align=center;verticalAlign=top;childLayout=stackLayout;horizontal=1;startSize=26;horizontalStack=0;resizeParent=1;resizeParentMax=0;resizeLast=0;collapsible=1;marginBottom=0;" vertex="1" parent="1">
          <mxGeometry x="10" y="320" width="220" height="130" as="geometry" />
        </mxCell>
        <mxCell id="haO7yndfSyBWcvpZkn_b-2" value="+ расположение: adrress&#xa;+тип: name&#xa;+факультет []: name&#xa;" style="text;strokeColor=none;fillColor=none;align=left;verticalAlign=top;spacingLeft=4;spacingRight=4;overflow=hidden;rotatable=0;points=[[0,0.5],[1,0.5]];portConstraint=eastwest;" vertex="1" parent="haO7yndfSyBWcvpZkn_b-1">
          <mxGeometry y="26" width="220" height="74" as="geometry" />
        </mxCell>
        <mxCell id="haO7yndfSyBWcvpZkn_b-3" value="" style="line;strokeWidth=1;fillColor=none;align=left;verticalAlign=middle;spacingTop=-1;spacingLeft=3;spacingRight=3;rotatable=0;labelPosition=right;points=[];portConstraint=eastwest;strokeColor=inherit;" vertex="1" parent="haO7yndfSyBWcvpZkn_b-1">
          <mxGeometry y="100" width="220" height="8" as="geometry" />
        </mxCell>
        <mxCell id="haO7yndfSyBWcvpZkn_b-4" value="+ Where(расположение): name" style="text;strokeColor=none;fillColor=none;align=left;verticalAlign=top;spacingLeft=4;spacingRight=4;overflow=hidden;rotatable=0;points=[[0,0.5],[1,0.5]];portConstraint=eastwest;" vertex="1" parent="haO7yndfSyBWcvpZkn_b-1">
          <mxGeometry y="108" width="220" height="22" as="geometry" />
        </mxCell>
        <mxCell id="haO7yndfSyBWcvpZkn_b-5" value="Employs" style="swimlane;fontStyle=1;align=center;verticalAlign=top;childLayout=stackLayout;horizontal=1;startSize=26;horizontalStack=0;resizeParent=1;resizeParentMax=0;resizeLast=0;collapsible=1;marginBottom=0;" vertex="1" parent="1">
          <mxGeometry x="310" y="10" width="160" height="158" as="geometry" />
        </mxCell>
        <mxCell id="haO7yndfSyBWcvpZkn_b-6" value="+ Proffesor: Name&#xa;+Supervaisers&#xa;+Other&#xa;" style="text;strokeColor=none;fillColor=none;align=left;verticalAlign=top;spacingLeft=4;spacingRight=4;overflow=hidden;rotatable=0;points=[[0,0.5],[1,0.5]];portConstraint=eastwest;" vertex="1" parent="haO7yndfSyBWcvpZkn_b-5">
          <mxGeometry y="26" width="160" height="98" as="geometry" />
        </mxCell>
        <mxCell id="haO7yndfSyBWcvpZkn_b-7" value="" style="line;strokeWidth=1;fillColor=none;align=left;verticalAlign=middle;spacingTop=-1;spacingLeft=3;spacingRight=3;rotatable=0;labelPosition=right;points=[];portConstraint=eastwest;strokeColor=inherit;" vertex="1" parent="haO7yndfSyBWcvpZkn_b-5">
          <mxGeometry y="124" width="160" height="8" as="geometry" />
        </mxCell>
        <mxCell id="haO7yndfSyBWcvpZkn_b-8" value="+ method(type): type" style="text;strokeColor=none;fillColor=none;align=left;verticalAlign=top;spacingLeft=4;spacingRight=4;overflow=hidden;rotatable=0;points=[[0,0.5],[1,0.5]];portConstraint=eastwest;" vertex="1" parent="haO7yndfSyBWcvpZkn_b-5">
          <mxGeometry y="132" width="160" height="26" as="geometry" />
        </mxCell>
        <mxCell id="haO7yndfSyBWcvpZkn_b-20" style="edgeStyle=orthogonalEdgeStyle;rounded=0;orthogonalLoop=1;jettySize=auto;html=1;entryX=0.5;entryY=1;entryDx=0;entryDy=0;" edge="1" parent="1" source="haO7yndfSyBWcvpZkn_b-9" target="haO7yndfSyBWcvpZkn_b-5">
          <mxGeometry relative="1" as="geometry" />
        </mxCell>
        <mxCell id="haO7yndfSyBWcvpZkn_b-9" value="Факультеты" style="swimlane;fontStyle=1;align=center;verticalAlign=top;childLayout=stackLayout;horizontal=1;startSize=26;horizontalStack=0;resizeParent=1;resizeParentMax=0;resizeLast=0;collapsible=1;marginBottom=0;" vertex="1" parent="1">
          <mxGeometry x="310" y="190" width="160" height="164" as="geometry" />
        </mxCell>
        <mxCell id="haO7yndfSyBWcvpZkn_b-10" value="+ Name: String&#xa;+Subjects[]:string&#xa;" style="text;strokeColor=none;fillColor=none;align=left;verticalAlign=top;spacingLeft=4;spacingRight=4;overflow=hidden;rotatable=0;points=[[0,0.5],[1,0.5]];portConstraint=eastwest;" vertex="1" parent="haO7yndfSyBWcvpZkn_b-9">
          <mxGeometry y="26" width="160" height="104" as="geometry" />
        </mxCell>
        <mxCell id="haO7yndfSyBWcvpZkn_b-11" value="" style="line;strokeWidth=1;fillColor=none;align=left;verticalAlign=middle;spacingTop=-1;spacingLeft=3;spacingRight=3;rotatable=0;labelPosition=right;points=[];portConstraint=eastwest;strokeColor=inherit;" vertex="1" parent="haO7yndfSyBWcvpZkn_b-9">
          <mxGeometry y="130" width="160" height="8" as="geometry" />
        </mxCell>
        <mxCell id="haO7yndfSyBWcvpZkn_b-12" value="+ Show (): subjects" style="text;strokeColor=none;fillColor=none;align=left;verticalAlign=top;spacingLeft=4;spacingRight=4;overflow=hidden;rotatable=0;points=[[0,0.5],[1,0.5]];portConstraint=eastwest;" vertex="1" parent="haO7yndfSyBWcvpZkn_b-9">
          <mxGeometry y="138" width="160" height="26" as="geometry" />
        </mxCell>
        <mxCell id="haO7yndfSyBWcvpZkn_b-18" value="" style="endArrow=diamondThin;endFill=1;endSize=24;html=1;rounded=0;entryX=0.395;entryY=-0.015;entryDx=0;entryDy=0;entryPerimeter=0;exitX=0;exitY=0.202;exitDx=0;exitDy=0;exitPerimeter=0;" edge="1" parent="1" source="haO7yndfSyBWcvpZkn_b-10" target="haO7yndfSyBWcvpZkn_b-1">
          <mxGeometry width="160" relative="1" as="geometry">
            <mxPoint x="230" y="210" as="sourcePoint" />
            <mxPoint x="300" y="230" as="targetPoint" />
            <Array as="points">
              <mxPoint x="180" y="240" />
            </Array>
          </mxGeometry>
        </mxCell>
        <mxCell id="haO7yndfSyBWcvpZkn_b-31" style="edgeStyle=orthogonalEdgeStyle;rounded=0;orthogonalLoop=1;jettySize=auto;html=1;entryX=1;entryY=0.77;entryDx=0;entryDy=0;entryPerimeter=0;" edge="1" parent="1" source="haO7yndfSyBWcvpZkn_b-21" target="haO7yndfSyBWcvpZkn_b-2">
          <mxGeometry relative="1" as="geometry" />
        </mxCell>
        <mxCell id="haO7yndfSyBWcvpZkn_b-21" value="&lt;p style=&quot;margin:0px;margin-top:4px;text-align:center;&quot;&gt;&lt;b&gt;Students&lt;/b&gt;&lt;br&gt;&lt;/p&gt;&lt;hr size=&quot;1&quot;&gt;&lt;p style=&quot;margin:0px;margin-left:4px;&quot;&gt;+ Student: Name&lt;br&gt;&lt;/p&gt;&lt;hr size=&quot;1&quot;&gt;&lt;p style=&quot;margin:0px;margin-left:4px;&quot;&gt;+ Information(student): string&lt;br&gt;&lt;/p&gt;" style="verticalAlign=top;align=left;overflow=fill;fontSize=12;fontFamily=Helvetica;html=1;" vertex="1" parent="1">
          <mxGeometry x="320" y="400" width="160" height="90" as="geometry" />
        </mxCell>
        <mxCell id="haO7yndfSyBWcvpZkn_b-22" value="Subjects" style="swimlane;fontStyle=1;align=center;verticalAlign=top;childLayout=stackLayout;horizontal=1;startSize=26;horizontalStack=0;resizeParent=1;resizeParentMax=0;resizeLast=0;collapsible=1;marginBottom=0;" vertex="1" parent="1">
          <mxGeometry x="530" y="190" width="160" height="120" as="geometry" />
        </mxCell>
        <mxCell id="haO7yndfSyBWcvpZkn_b-23" value="+name: string" style="text;strokeColor=none;fillColor=none;align=left;verticalAlign=top;spacingLeft=4;spacingRight=4;overflow=hidden;rotatable=0;points=[[0,0.5],[1,0.5]];portConstraint=eastwest;" vertex="1" parent="haO7yndfSyBWcvpZkn_b-22">
          <mxGeometry y="26" width="160" height="26" as="geometry" />
        </mxCell>
        <mxCell id="haO7yndfSyBWcvpZkn_b-24" value="" style="line;strokeWidth=1;fillColor=none;align=left;verticalAlign=middle;spacingTop=-1;spacingLeft=3;spacingRight=3;rotatable=0;labelPosition=right;points=[];portConstraint=eastwest;strokeColor=inherit;" vertex="1" parent="haO7yndfSyBWcvpZkn_b-22">
          <mxGeometry y="52" width="160" height="8" as="geometry" />
        </mxCell>
        <mxCell id="haO7yndfSyBWcvpZkn_b-25" value="+ Information(name): string&#xa;+ Information(): string" style="text;strokeColor=none;fillColor=none;align=left;verticalAlign=top;spacingLeft=4;spacingRight=4;overflow=hidden;rotatable=0;points=[[0,0.5],[1,0.5]];portConstraint=eastwest;" vertex="1" parent="haO7yndfSyBWcvpZkn_b-22">
          <mxGeometry y="60" width="160" height="60" as="geometry" />
        </mxCell>
        <mxCell id="haO7yndfSyBWcvpZkn_b-26" value="Ern" style="swimlane;fontStyle=1;align=center;verticalAlign=top;childLayout=stackLayout;horizontal=1;startSize=26;horizontalStack=0;resizeParent=1;resizeParentMax=0;resizeLast=0;collapsible=1;marginBottom=0;" vertex="1" parent="1">
          <mxGeometry x="530" y="10" width="260" height="140" as="geometry" />
        </mxCell>
        <mxCell id="haO7yndfSyBWcvpZkn_b-27" value="+days: int &#xa;+coefficient: double" style="text;strokeColor=none;fillColor=none;align=left;verticalAlign=top;spacingLeft=4;spacingRight=4;overflow=hidden;rotatable=0;points=[[0,0.5],[1,0.5]];portConstraint=eastwest;" vertex="1" parent="haO7yndfSyBWcvpZkn_b-26">
          <mxGeometry y="26" width="260" height="54" as="geometry" />
        </mxCell>
        <mxCell id="haO7yndfSyBWcvpZkn_b-28" value="" style="line;strokeWidth=1;fillColor=none;align=left;verticalAlign=middle;spacingTop=-1;spacingLeft=3;spacingRight=3;rotatable=0;labelPosition=right;points=[];portConstraint=eastwest;strokeColor=inherit;" vertex="1" parent="haO7yndfSyBWcvpZkn_b-26">
          <mxGeometry y="80" width="260" height="8" as="geometry" />
        </mxCell>
        <mxCell id="haO7yndfSyBWcvpZkn_b-29" value="+ Salary(days, coefficient, proffesor): int&#xa;+Salary (days, coefficient, other)" style="text;strokeColor=none;fillColor=none;align=left;verticalAlign=top;spacingLeft=4;spacingRight=4;overflow=hidden;rotatable=0;points=[[0,0.5],[1,0.5]];portConstraint=eastwest;" vertex="1" parent="haO7yndfSyBWcvpZkn_b-26">
          <mxGeometry y="88" width="260" height="52" as="geometry" />
        </mxCell>
        <mxCell id="haO7yndfSyBWcvpZkn_b-30" style="edgeStyle=orthogonalEdgeStyle;rounded=0;orthogonalLoop=1;jettySize=auto;html=1;entryX=1;entryY=0.276;entryDx=0;entryDy=0;entryPerimeter=0;" edge="1" parent="1" source="haO7yndfSyBWcvpZkn_b-27" target="haO7yndfSyBWcvpZkn_b-6">
          <mxGeometry relative="1" as="geometry" />
        </mxCell>
        <mxCell id="haO7yndfSyBWcvpZkn_b-33" value="" style="endArrow=diamondThin;endFill=1;endSize=24;html=1;rounded=0;" edge="1" parent="1">
          <mxGeometry width="160" relative="1" as="geometry">
            <mxPoint x="530" y="240" as="sourcePoint" />
            <mxPoint x="460" y="240" as="targetPoint" />
          </mxGeometry>
        </mxCell>
      </root>
    </mxGraphModel>
  </diagram>
</mxfile>
